<svg width="127" height="99" viewBox="0 0 127 99" fill="none" xmlns="http://www.w3.org/2000/svg">
<path d="M95.2135 6.49298L34.4994 67.2071C27.2521 74.4543 27.2521 86.2029 34.4994 93.4502C41.7467 100.697 53.4953 100.697 60.7425 93.4502L121.455 32.7361C128.702 25.4888 128.702 13.7402 121.455 6.49298C114.209 -0.752867 102.459 -0.752867 95.2135 6.49298Z" fill="#9389D9"/>
<path d="M31.6786 38.2193L60.6662 67.2069C67.9135 74.4542 67.9135 86.2028 60.6662 93.4501C53.4189 100.697 41.6703 100.697 34.4231 93.4501L5.43545 64.461C-1.81182 57.2138 -1.81182 45.4652 5.43545 38.2179C12.6827 30.9721 24.4313 30.9721 31.6786 38.2193Z" fill="#7660CF"/>
<path d="M95.3217 6.38515L82.5116 19.1952C75.2644 26.4425 75.2644 38.1911 82.5116 45.4383C89.7589 52.6856 101.507 52.6856 108.755 45.4383L121.565 32.6283C128.812 25.381 128.812 13.6324 121.565 6.38515C114.318 -0.862109 102.569 -0.862109 95.3217 6.38515Z" fill="#8477D9"/>
</svg>
